Coordinates
version=1
nRows=22
nColumns=24
inDegrees=yes

Units are S.I. units (second, meters, Newtons, ...)
Angles are in degrees.

endheader
time	pelvis_tilt	pelvis_list	pelvis_rotation	pelvis_tx	pelvis_ty	pelvis_tz	hip_flexion_r	hip_adduction_r	hip_rotation_r	knee_angle_r	ankle_angle_r	subtalar_angle_r	mtp_angle_r	hip_flexion_l	hip_adduction_l	hip_rotation_l	knee_angle_l	ankle_angle_l	subtalar_angle_l	mtp_angle_l	lumbar_extension	lumbar_bending	lumbar_rotation
      2.95000000	     -9.11533346	     -5.63359470	      7.74831573	     -1.66385875	     -0.03648302	      0.65411253	     32.41668336	      0.99507177	     -1.67752579	    -34.32496157	      0.96242339	     -4.05296031	     14.30265270	     11.44999264	     -3.87235268	      5.87831252	    -55.12519498	    -31.22392582	     -1.12804922	     21.90878221	      7.33643638	     12.99829797	    -10.26972976
      2.95500000	     -9.06231446	     -5.88968271	      7.55025808	     -1.65638504	     -0.03578544	      0.65447793	     31.81259773	      1.38577702	     -1.84542817	    -34.15724646	      1.61476792	     -3.67138404	     13.66781230	     12.54865517	     -4.08850773	      5.56977009	    -56.73415819	    -30.29586257	     -0.66704083	     23.58962900	      7.24411518	     13.38691108	     -9.81733923
      2.96000000	     -8.96307125	     -5.91172110	      7.25772039	     -1.64900824	     -0.03488569	      0.65488742	     31.14671326	      1.59048610	     -1.83970401	    -33.97731513	      2.13083428	     -3.29133271	     13.84933605	     13.51795526	     -4.07313282	      5.12127664	    -58.21975750	    -29.00369386	     -0.14645359	     24.67752240	      7.02114663	     13.54839721	     -9.23252244
      2.96500000	     -8.89808478	     -5.96527108	      6.99918853	     -1.64154957	     -0.03389685	      0.65526948	     30.47111499	      1.82311882	     -1.79098213	    -33.71841026	      2.55965547	     -3.03900164	     14.00504744	     14.51606405	     -4.09670875	      4.70960717	    -59.59603650	    -27.63329306	      0.36529747	     25.86727594	      6.87034025	     13.72753881	     -8.68601342
      2.97000000	     -8.83897909	     -5.97999431	      6.75476564	     -1.63416696	     -0.03280897	      0.65569657	     29.79383215	      2.00875686	     -1.78956790	    -33.43838270	      2.89443327	     -2.92034574	     14.11696066	     15.51518846	     -4.09598784	      4.30172986	    -60.85883674	    -26.33559766	      0.88503736	     27.11563387	      6.70871357	     13.84716161	     -8.09518322
      2.97500000	     -8.75568642	     -5.97651489	      6.51655125	     -1.62672929	     -0.03162018	      0.65603250	     29.05081117	      2.16619492	     -1.74244342	    -33.10801788	      3.31269457	     -2.60201822	     14.27209669	     16.48138507	     -4.09451068	      3.82274211	    -62.02999843	    -25.15631762	      1.10763007	     27.83687249	      6.53593848	     13.95467146	     -7.56455677
      2.98000000	     -8.70537962	     -5.92699227	      6.27179836	     -1.61929384	     -0.03039232	      0.65649105	     28.32392687	      2.30021326	     -1.62548750	    -32.74546265	      3.64496562	     -2.46745367	     14.35669479	     17.45453744	     -4.05276599	      3.38744212	    -63.09179456	    -23.98771804	      1.52386842	     28.46909465	      6.39666941	     13.98696816	     -7.02132841
      2.98500000	     -8.66298544	     -5.88239797	      6.05051691	     -1.61184488	     -0.02912083	      0.65695960	     27.57738577	      2.43602828	     -1.49246452	    -32.33208653	      3.93554471	     -2.40314682	     14.39223074	     18.43504629	     -4.02438531	      2.96906477	    -64.06143848	    -23.02391748	      1.80028191	     28.88535592	      6.28269911	     14.01007736	     -6.51497903
      2.99000000	     -8.62903852	     -5.83868649	      5.83434905	     -1.60439606	     -0.02783818	      0.65743314	     26.81923005	      2.57003461	     -1.34825470	    -31.87991371	      4.20449795	     -2.36809251	     14.38886985	     19.41849561	     -4.00473799	      2.55687106	    -64.94526020	    -22.24502356	      1.94263876	     29.07380762	      6.18442015	     14.02508175	     -6.02385002
      2.99500000	     -8.64033469	     -5.76999162	      5.56706970	     -1.59690768	     -0.02658817	      0.65804147	     26.09129994	      2.72548374	     -1.05658970	    -31.40056206	      4.41032285	     -2.52021506	     14.21539690	     20.42533445	     -3.98412799	      2.09683906	    -65.76031324	    -21.45438183	      2.06120429	     28.68200254	      6.13288180	     13.99900820	     -5.48990357
      3.00000000	     -8.62804293	     -5.71943475	      5.34345912	     -1.58946208	     -0.02536937	      0.65849681	     25.33355197	      2.85063258	     -0.87777194	    -30.91478088	      4.68358666	     -2.52429425	     13.96951686	     21.42887874	     -3.98238008	      1.60746774	    -66.53671279	    -20.80452439	      1.78383363	     27.63993521	      6.06625981	     13.99570327	     -5.01843030
      3.00500000	     -8.61836873	     -5.68582572	      5.17769913	     -1.58197962	     -0.02413914	      0.65887559	     24.54088353	      2.97371828	     -0.68343872	    -30.36457962	      4.92810920	     -2.54354193	     13.74206225	     22.42105796	     -3.96760349	      1.22918398	    -67.20433282	    -20.30068465	      1.47333794	     26.73299629	      6.03285867	     13.99793380	     -4.63401010
      3.01000000	     -8.61127716	     -5.64496155	      5.00380973	     -1.57456059	     -0.02298476	      0.65924955	     23.76222889	      3.07961574	     -0.52691189	    -29.82940657	      5.19570263	     -2.52322080	     13.43134242	     23.40896446	     -3.94838490	      0.84722521	    -67.81622616	    -19.74003896	      1.13392311	     25.48988587	      5.98632214	     13.99125325	     -4.20524908
      3.01500000	     -8.60952170	     -5.64499079	      4.85776410	     -1.56711692	     -0.02184629	      0.65967972	     22.96062847	      3.23358795	     -0.34975078	    -29.22185269	      5.35638800	     -2.66592996	     13.31402101	     24.38496121	     -3.98010466	      0.51970751	    -68.27146352	    -19.60106358	      0.59170656	     25.27865355	      5.96836828	     14.00764254	     -3.87835775
      3.02000000	     -8.64070390	     -5.55556753	      4.62649021	     -1.55967423	     -0.02080023	      0.66015945	     22.20639375	      3.33388907	      0.00469455	    -28.67285470	      5.61577884	     -2.76414772	     12.70696720	     25.35899785	     -3.93911900	      0.06024671	    -68.72764340	    -18.87022075	      0.16041934	     23.38731747	      5.95477774	     13.93628452	     -3.42454011
      3.02500000	     -8.65393683	     -5.54244472	      4.50996037	     -1.55226280	     -0.01976939	      0.66057502	     21.40599770	      3.46721314	      0.22084429	    -28.03627102	      5.74574040	     -2.99060055	     12.54533132	     26.31786402	     -3.94117282	     -0.21786850	    -69.01097394	    -18.71489459	     -0.42443567	     23.18092289	      5.95784731	     13.91902008	     -3.17639399
      3.03000000	     -8.67746500	     -5.45889294	      4.29171952	     -1.54485194	     -0.01883679	      0.66107013	     20.63960862	      3.56683543	      0.58476670	    -27.47835039	      6.00828735	     -3.12667332	     11.77692955	     27.24830422	     -3.90840014	     -0.62977473	    -69.29849420	    -17.91662379	     -0.78433385	     21.43809931	      5.93373134	     13.83902150	     -2.75867751
      3.03500000	     -8.71381837	     -5.39420011	      4.15516305	     -1.53746484	     -0.01791419	      0.66152457	     19.86596972	      3.65112923	      0.85778334	    -26.84612238	      6.07972250	     -3.44512068	     11.54690790	     28.17418833	     -3.85582329	     -0.90114170	    -69.40327553	    -17.65156858	     -1.27960950	     21.22908399	      5.94583849	     13.75565106	     -2.47881170
      3.04000000	     -8.74274992	     -5.30937523	      3.93781816	     -1.53008071	     -0.01705256	      0.66211507	     19.09100097	      3.75053307	      1.26359323	    -26.23249518	      6.17134239	     -3.77300165	     11.15465722	     29.05397261	     -3.83225040	     -1.23542147	    -69.44503303	    -17.18364016	     -1.59166415	     20.78651668	      5.92425325	     13.65356662	     -2.12083645
      3.04500000	     -8.75474602	     -5.21093738	      3.74914617	     -1.52268380	     -0.01623521	      0.66266607	     18.29202392	      3.81844775	      1.64811662	    -25.61907331	      6.31179493	     -4.05245939	     10.63548905	     29.89583904	     -3.77899735	     -1.52427334	    -69.41860788	    -16.60113149	     -1.78413269	     20.19192912	      5.89167692	     13.52823279	     -1.82165052
      3.05000000	     -8.76277619	     -5.10408848	      3.56946466	     -1.51530895	     -0.01549063	      0.66316988	     17.49669609	      3.85526671	      1.98630779	    -25.02175130	      6.49898035	     -4.23046719	     10.07605299	     30.71358141	     -3.70780551	     -1.78236358	    -69.32104901	    -15.96474645	     -1.90086764	     19.59886953	      5.85083813	     13.39267160	     -1.54150351
      3.05500000	     -8.80522259	     -5.02480274	      3.50014679	     -1.50797916	     -0.01487842	      0.66342512	     16.74538044	      3.83845968	      2.09375997	    -24.41342831	      6.65692074	     -4.24183653	     10.00486771	     31.57231858	     -3.57832277	     -1.88159794	    -69.13011721	    -15.53428542	     -2.08862566	     19.63988953	      5.87384461	     13.28006465	     -1.41626188
